<svg xmlns="http://www.w3.org/2000/svg" width="34" height="32.381" viewBox="0 0 34 32.381">
  <g id="noun_virus_2087894" transform="translate(0 0)">
    <g id="Group_1724" data-name="Group 1724" transform="translate(0 0)">
      <path id="Path_881" data-name="Path 881" d="M17.221,6.839l.083-.566a1.988,1.988,0,1,1,1.172.17l-.069.472a9.26,9.26,0,0,1,2.633.74l1.207-1.842a2.02,2.02,0,1,1,1.551.725,2.032,2.032,0,0,1-.558-.078L22.092,8.211a9.333,9.333,0,0,1,2.661,2.459l1.861-1.139a2.017,2.017,0,1,1,.619,1.006l-1.846,1.13a9.283,9.283,0,0,1,1,6.091l2.276.343a2.754,2.754,0,1,1-.177,1.169L26.1,18.911a9.268,9.268,0,0,1-2.174,3.648l.258.361a1.979,1.979,0,1,1-.965.684l-.174-.244a9.252,9.252,0,0,1-1.553,1.009l.67,2.882a1.986,1.986,0,1,1-1.154.267l-.621-2.667a9.336,9.336,0,0,1-3.569.544l-.339,3.188a1.988,1.988,0,1,1-1.177-.124l.339-3.188a9.251,9.251,0,0,1-2.686-.9l-.979.848a1.99,1.99,0,1,1-.776-.891l.691-.6a9.333,9.333,0,0,1-3.136-3.741l-1.505.576a1.97,1.97,0,0,1-.577,1.526,1.984,1.984,0,1,1,.153-2.63l1.5-.576a9.225,9.225,0,0,1-.4-2.145l-2.281.008a2.845,2.845,0,1,1,0-1.179l2.281-.008a9.2,9.2,0,0,1,.912-3.487L7,10.7a1.984,1.984,0,1,1,.828-1.61,1.971,1.971,0,0,1-.115.666L9.427,11.04a9.366,9.366,0,0,1,3.087-2.93l-1.436-2.6a2.822,2.822,0,1,1,1.038-.571l1.457,2.643a9.314,9.314,0,0,1,3.647-.739Zm.942-3.15a.8.8,0,1,0,.8.8A.8.8,0,0,0,18.163,3.69ZM5.273,8.522a.8.8,0,1,0,1.365.564A.8.8,0,0,0,5.273,8.522ZM24.8,24.006a.8.8,0,1,0,.8.8.8.8,0,0,0-.8-.8ZM23.8,3.7a.829.829,0,1,0,.831.829A.831.831,0,0,0,23.8,3.7Zm4.77,4.5a.829.829,0,1,0,.831.829A.831.831,0,0,0,28.568,8.2ZM2.854,14.509A1.662,1.662,0,1,0,4.521,16.17,1.663,1.663,0,0,0,2.854,14.509Zm2.978,5.62a.8.8,0,1,0,0,1.128A.806.806,0,0,0,5.832,20.128Zm4.888,5.324a.8.8,0,1,0,0,1.128A.806.806,0,0,0,10.72,25.452Zm4.97,4.151a.8.8,0,1,0,.8.8A.8.8,0,0,0,15.691,29.6Zm6.322-1.175a.8.8,0,1,0,.8.8A.8.8,0,0,0,22.013,28.429Zm7.652-9.341a1.574,1.574,0,1,0,1.574-1.569A1.572,1.572,0,0,0,29.665,19.088ZM11.9,2.812a1.634,1.634,0,1,0-1.634,1.629A1.628,1.628,0,0,0,11.9,2.812ZM18.4,16.04a2.069,2.069,0,1,1-2.076,2.069A2.073,2.073,0,0,1,18.4,16.04Zm0,1.184a.886.886,0,1,0,.888.886A.887.887,0,0,0,18.4,17.223Zm2.984-6.194A2.069,2.069,0,1,1,19.305,13.1,2.073,2.073,0,0,1,21.381,11.03Zm0,1.184a.886.886,0,1,0,.888.886A.887.887,0,0,0,21.381,12.213Zm-6.8.724A2.069,2.069,0,1,1,12.5,15.007,2.073,2.073,0,0,1,14.578,12.937Zm0,1.184a.886.886,0,1,0,.888.886A.887.887,0,0,0,14.578,14.121Zm2.64-6.1a8.1,8.1,0,1,0,8.123,8.1,8.11,8.11,0,0,0-8.123-8.1Z" transform="translate(0 0)" fill="#9b27b0"/>
    </g>
  </g>
</svg>
